<svg id="visual" viewBox="0 450 1200 224" width="1200" height="224" xmlns="http://www.w3.org/2000/svg" xmlns:xlink="http://www.w3.org/1999/xlink" version="1.1"><path d="M0 471L28.5 478.7C57 486.3 114 501.7 171.2 507.5C228.3 513.3 285.7 509.7 342.8 503.2C400 496.7 457 487.3 514.2 488.5C571.3 489.7 628.7 501.3 685.8 510.8C743 520.3 800 527.7 857.2 527C914.3 526.3 971.7 517.7 1028.8 503.8C1086 490 1143 471 1171.5 461.5L1200 452L1200 676L1171.5 676C1143 676 1086 676 1028.8 676C971.7 676 914.3 676 857.2 676C800 676 743 676 685.8 676C628.7 676 571.3 676 514.2 676C457 676 400 676 342.8 676C285.7 676 228.3 676 171.2 676C114 676 57 676 28.5 676L0 676Z" fill="#3f51b5"></path><path d="M0 552L28.5 551.5C57 551 114 550 171.2 541.3C228.3 532.7 285.7 516.3 342.8 516C400 515.7 457 531.3 514.2 540.7C571.3 550 628.7 553 685.8 545.2C743 537.3 800 518.7 857.2 511.3C914.3 504 971.7 508 1028.8 511.8C1086 515.7 1143 519.3 1171.5 521.2L1200 523L1200 676L1171.5 676C1143 676 1086 676 1028.8 676C971.7 676 914.3 676 857.2 676C800 676 743 676 685.8 676C628.7 676 571.3 676 514.2 676C457 676 400 676 342.8 676C285.7 676 228.3 676 171.2 676C114 676 57 676 28.5 676L0 676Z" fill="#8786ce"></path><path d="M0 565L28.5 564.8C57 564.7 114 564.3 171.2 562.5C228.3 560.7 285.7 557.3 342.8 555.3C400 553.3 457 552.7 514.2 551.8C571.3 551 628.7 550 685.8 553.2C743 556.3 800 563.7 857.2 568C914.3 572.3 971.7 573.7 1028.8 579.3C1086 585 1143 595 1171.5 600L1200 605L1200 676L1171.5 676C1143 676 1086 676 1028.8 676C971.7 676 914.3 676 857.2 676C800 676 743 676 685.8 676C628.7 676 571.3 676 514.2 676C457 676 400 676 342.8 676C285.7 676 228.3 676 171.2 676C114 676 57 676 28.5 676L0 676Z" fill="#c4c1e7"></path><path d="M0 595L28.5 599.7C57 604.3 114 613.7 171.2 621C228.3 628.3 285.7 633.7 342.8 635.7C400 637.7 457 636.3 514.2 635.3C571.3 634.3 628.7 633.7 685.8 627.2C743 620.7 800 608.3 857.2 604.8C914.3 601.3 971.7 606.7 1028.8 613.3C1086 620 1143 628 1171.5 632L1200 636L1200 676L1171.5 676C1143 676 1086 676 1028.8 676C971.7 676 914.3 676 857.2 676C800 676 743 676 685.8 676C628.7 676 571.3 676 514.2 676C457 676 400 676 342.8 676C285.7 676 228.3 676 171.2 676C114 676 57 676 28.5 676L0 676Z" fill="#ffffff"></path></svg>